<?xml version="1.0" encoding="UTF-8"?>
<svg id="Layer_2" data-name="Layer 2" xmlns="http://www.w3.org/2000/svg" viewBox="0 0 16 16">
  <defs>
    <style>
      .cls-1 {
        fill: #ede0d4;
      }

      .cls-2 {
        fill: #231f20;
      }
    </style>
  </defs>
  <g id="Layer_1-2" data-name="Layer 1">
    <rect class="cls-1" width="16" height="16" rx="2.74" ry="2.74"/>
    <path class="cls-2" d="M12.62,5.16c0,.14-.05,.26-.08,.37l-1.67,5.42c-.1,.33-.36,.48-.69,.48s-.57-.15-.69-.48l-1.49-4.07-1.5,4.07c-.12,.33-.35,.48-.68,.48s-.59-.15-.7-.48l-1.66-5.42c-.04-.11-.09-.23-.09-.37,0-.32,.28-.59,.64-.59,.28,0,.55,.16,.62,.42l1.23,4.37,1.55-4.36c.12-.32,.33-.43,.57-.43s.48,.11,.59,.43l1.55,4.36,1.22-4.37c.07-.25,.34-.42,.63-.42,.36,0,.63,.27,.63,.59Z"/>
  </g>
</svg>