<?xml version="1.0" encoding="UTF-8"?><svg id="Layer_2" xmlns="http://www.w3.org/2000/svg" viewBox="0 0 96.8 96.8"><defs><style>.cls-1{fill:#f4f4f4;}</style></defs><g id="Layer_1-2"><g><rect class="cls-1" x="48.4" y="48.4" width="48.3" height="48.3"/><path class="cls-1" d="M72.6,48.4h0c-13.4,0-24.2-10.8-24.2-24.2h0C48.4,10.8,59.2,0,72.6,0h0c13.4,0,24.2,10.8,24.2,24.2h0c-.1,13.4-10.9,24.2-24.2,24.2Z"/><rect class="cls-1" y=".1" width="48.3" height="48.3"/><path class="cls-1" d="M24.2,96.8h0c-13.4,0-24.2-10.8-24.2-24.2H0c0-13.4,10.8-24.2,24.2-24.2h0c13.4,0,24.2,10.8,24.2,24.2h0c0,13.4-10.8,24.2-24.2,24.2Z"/></g></g></svg>